<svg width="276" height="180" viewBox="0 0 276 180" fill="none" xmlns="http://www.w3.org/2000/svg">
<path fill-rule="evenodd" clip-rule="evenodd" d="M36 0C16.1178 0 0 16.1177 0 36V144C0 163.882 16.1177 180 36 180H240C259.882 180 276 163.882 276 144V36C276 16.1178 259.882 0 240 0H36ZM24 36C24 29.3726 29.3726 24 36 24H240C246.627 24 252 29.3726 252 36V144C252 150.627 246.627 156 240 156H36C29.3726 156 24 150.627 24 144V36ZM216 108C225.941 108 234 99.9411 234 90C234 80.0589 225.941 72 216 72C206.059 72 198 80.0589 198 90C198 99.9411 206.059 108 216 108ZM78 90C78 99.9411 69.9411 108 60 108C50.0589 108 42 99.9411 42 90C42 80.0589 50.0589 72 60 72C69.9411 72 78 80.0589 78 90ZM114 90C114 76.7452 124.745 66 138 66C151.255 66 162 76.7452 162 90C162 103.255 151.255 114 138 114C124.745 114 114 103.255 114 90ZM138 42C111.49 42 90 63.4903 90 90C90 116.51 111.49 138 138 138C164.51 138 186 116.51 186 90C186 63.4903 164.51 42 138 42Z" fill="#141414"/>
</svg>
